<svg width="512" height="512" viewBox="0 0 512 512" fill="none" xmlns="http://www.w3.org/2000/svg">
  <rect width="512" height="512" rx="120" fill="#10B981"/>
  <path d="M128 280C133.523 280 138 275.523 138 270V170C138 164.477 133.523 160 128 160C122.477 160 118 164.477 118 170V270C118 275.523 122.477 280 128 280Z" fill="#F8FAFC"/>
  <path d="M192 280C197.523 280 202 275.523 202 270V120C202 114.477 197.523 110 192 110C186.477 110 182 114.477 182 120V270C182 275.523 186.477 280 192 280Z" fill="#F8FAFC"/>
  <path d="M256 280C261.523 280 266 275.523 266 270V140C266 134.477 261.523 130 256 130C250.477 130 246 134.477 246 140V270C246 275.523 250.477 280 256 280Z" fill="#F8FAFC"/>
  <path d="M320 280C325.523 280 330 275.523 330 270V190C330 184.477 325.523 180 320 180C314.477 180 310 184.477 310 190V270C310 275.523 314.477 280 320 280Z" fill="#F8FAFC"/>
  <path d="M384 280C389.523 280 394 275.523 394 270V230C394 224.477 389.523 220 384 220C378.477 220 374 224.477 374 230V270C374 275.523 378.477 280 384 280Z" fill="#F8FAFC"/>
</svg>
