<svg width="192" height="192" viewBox="0 0 192 192" fill="none" xmlns="http://www.w3.org/2000/svg">
  <rect width="192" height="192" rx="38" fill="#10B981"/>
  <path d="M48 112C50.2091 112 52 110.209 52 108V68C52 65.7909 50.2091 64 48 64C45.7909 64 44 65.7909 44 68V108C44 110.209 45.7909 112 48 112Z" fill="#F8FAFC"/>
  <path d="M72 112C74.2091 112 76 110.209 76 108V48C76 45.7909 74.2091 44 72 44C69.7909 44 68 45.7909 68 48V108C68 110.209 69.7909 112 72 112Z" fill="#F8FAFC"/>
  <path d="M96 112C98.2091 112 100 110.209 100 108V56C100 53.7909 98.2091 52 96 52C93.7909 52 92 53.7909 92 56V108C92 110.209 93.7909 112 96 112Z" fill="#F8FAFC"/>
  <path d="M120 112C122.209 112 124 110.209 124 108V76C124 73.7909 122.209 72 120 72C117.791 72 116 73.7909 116 76V108C116 110.209 117.791 112 120 112Z" fill="#F8FAFC"/>
  <path d="M144 112C146.209 112 148 110.209 148 108V92C148 89.7909 146.209 88 144 88C141.791 88 140 89.7909 140 92V108C140 110.209 141.791 112 144 112Z" fill="#F8FAFC"/>
</svg>
